# xmcd CD database file
#
# Track frame offsets:
#	150
#	18602
#	40782
#	63131
#	83751
#	96550
#	115457
#	135207
#	152241
#	171886
#	185309
#	205853
#	239460
#	255622
#	269876
#
# Disc length: 3834 seconds
#
# Revision: 0
# Processed by: cddbd v1.5.2PL0 Copyright (c) Steve Scherf et al.
# Submitted via: CDex 1.70beta2
#
DISCID=d10ef80f
DTITLE=Wrobel/Alderighi/Parrott/Trick - From Joplin To Jobim
DYEAR=2015
DGENRE=Jazz
TTITLE0=The Cascades
TTITLE1=Blueberry Hill
TTITLE2=Tico-Tico No Fuba
TTITLE3=September Song
TTITLE4=Agitation Rag
TTITLE5=Bei Mir Bist Du Schön
TTITLE6=Doralice
TTITLE7=Thanks For The Memory
TTITLE8=Liza (All The Clouds'll Roll Away)
TTITLE9=Aquarela Do Brasil
TTITLE10=Donna
TTITLE11=The Girl From Ipanema/Wave/Agua De Beber/So Danço Samba
TTITLE12=Willie El Gato
TTITLE13=Swingin' Ladies Boogie
TTITLE14=Il Profumo Del Mondo
EXTD=YEAR: 2015
EXTT0=
EXTT1=
EXTT2=
EXTT3=
EXTT4=
EXTT5=
EXTT6=
EXTT7=
EXTT8=
EXTT9=
EXTT10=
EXTT11=
EXTT12=
EXTT13=
EXTT14=
PLAYORDER=
